<svg xmlns="http://www.w3.org/2000/svg" xmlns:xlink="http://www.w3.org/1999/xlink" width="500" zoomAndPan="magnify" viewBox="0 0 375 374.999991" height="500" preserveAspectRatio="xMidYMid meet" version="1.0"><path fill="#4f4f4f" d="M 187.5 0 C 83.925781 0 0 83.925781 0 187.5 C 0 291.074219 83.925781 375 187.5 375 C 291.074219 375 375 291.074219 375 187.5 C 375 83.925781 291.074219 0 187.5 0 Z M 77.175781 111.601562 C 77.25 111.523438 77.398438 111.449219 77.476562 111.375 C 77.550781 111.300781 77.625 111.300781 77.699219 111.226562 C 77.851562 111.148438 77.925781 111.074219 78.074219 111 C 78.148438 110.925781 78.226562 110.925781 78.375 110.851562 C 78.523438 110.773438 78.601562 110.699219 78.75 110.699219 C 78.824219 110.625 78.898438 110.625 79.050781 110.550781 C 79.199219 110.476562 79.273438 110.476562 79.425781 110.398438 C 79.5 110.398438 79.648438 110.324219 79.726562 110.324219 C 79.875 110.25 79.949219 110.25 80.101562 110.175781 C 80.175781 110.175781 80.324219 110.101562 80.398438 110.101562 C 80.550781 110.023438 80.699219 110.023438 80.851562 110.023438 C 80.925781 110.023438 81 109.949219 81.148438 109.949219 C 81.300781 109.949219 81.449219 109.875 81.601562 109.875 C 81.675781 109.875 81.75 109.875 81.824219 109.875 C 82.050781 109.875 82.273438 109.875 82.574219 109.875 L 295.800781 109.875 C 296.023438 109.875 296.25 109.875 296.550781 109.875 C 296.625 109.875 296.699219 109.875 296.773438 109.875 C 296.925781 109.875 297.074219 109.949219 297.226562 109.949219 C 297.300781 109.949219 297.375 110.023438 297.523438 110.023438 C 297.675781 110.023438 297.824219 110.101562 297.976562 110.101562 C 298.050781 110.101562 298.199219 110.175781 298.273438 110.175781 C 298.425781 110.25 298.574219 110.25 298.648438 110.324219 C 298.726562 110.324219 298.875 110.398438 298.949219 110.398438 C 299.101562 110.476562 299.175781 110.476562 299.324219 110.550781 C 299.398438 110.625 299.476562 110.625 299.625 110.699219 C 299.773438 110.773438 299.851562 110.851562 300 110.851562 C 300.074219 110.925781 300.148438 110.925781 300.300781 111 C 300.449219 111.074219 300.523438 111.148438 300.675781 111.226562 C 300.75 111.300781 300.824219 111.300781 300.898438 111.375 C 301.050781 111.449219 301.125 111.523438 301.199219 111.601562 C 301.273438 111.675781 301.351562 111.675781 301.351562 111.75 L 195.226562 217.726562 C 193.574219 219.375 191.398438 220.273438 189.148438 220.273438 C 186.824219 220.273438 184.648438 219.375 183.074219 217.726562 L 77.023438 111.75 C 77.101562 111.675781 77.101562 111.675781 77.175781 111.601562 Z M 73.800781 132.976562 L 128.476562 187.648438 L 73.800781 242.324219 Z M 295.726562 265.351562 L 82.574219 265.351562 C 80.550781 265.351562 78.601562 264.601562 77.101562 263.398438 L 140.625 199.875 L 170.699219 229.949219 C 175.574219 234.824219 182.101562 237.523438 189 237.523438 C 195.898438 237.523438 202.425781 234.824219 207.300781 229.949219 L 237.523438 199.726562 L 301.125 263.324219 C 299.773438 264.601562 297.824219 265.351562 295.726562 265.351562 Z M 304.351562 242.023438 L 249.898438 187.5 L 304.425781 132.976562 L 304.425781 242.023438 Z M 304.351562 242.023438 " fill-opacity="1" fill-rule="nonzero"/></svg>