<svg xmlns="http://www.w3.org/2000/svg" xmlns:xlink="http://www.w3.org/1999/xlink" width="500" zoomAndPan="magnify" viewBox="0 0 375 374.999991" height="500" preserveAspectRatio="xMidYMid meet" version="1.0"><defs><clipPath id="b62b7baf69"><path d="M 2 2 L 375 2 L 375 371.25 L 2 371.25 Z M 2 2 " clip-rule="nonzero"/></clipPath></defs><g clip-path="url(#b62b7baf69)"><path fill="#000000" d="M 368.371094 358.789062 L 257.902344 358.789062 C 258.464844 358.230469 259.003906 357.652344 259.535156 357.058594 C 259.652344 356.929688 259.765625 356.792969 259.878906 356.660156 C 260.289062 356.195312 260.6875 355.714844 261.074219 355.226562 C 261.21875 355.046875 261.363281 354.867188 261.503906 354.6875 C 261.867188 354.214844 262.21875 353.734375 262.566406 353.246094 C 262.695312 353.066406 262.828125 352.886719 262.953125 352.699219 C 263.410156 352.035156 263.851562 351.359375 264.273438 350.667969 C 264.367188 350.515625 264.449219 350.359375 264.539062 350.203125 C 264.8125 349.746094 265.082031 349.285156 265.335938 348.816406 C 265.5 348.515625 265.648438 348.207031 265.804688 347.902344 C 265.96875 347.578125 266.140625 347.257812 266.300781 346.929688 C 266.488281 346.535156 266.660156 346.132812 266.835938 345.738281 C 266.945312 345.492188 267.0625 345.253906 267.164062 345.007812 C 267.347656 344.574219 267.515625 344.132812 267.683594 343.691406 C 267.765625 343.480469 267.855469 343.269531 267.933594 343.058594 C 268.117188 342.546875 268.285156 342.035156 268.453125 341.519531 C 268.5 341.371094 268.554688 341.226562 268.597656 341.082031 C 268.777344 340.507812 268.9375 339.933594 269.089844 339.355469 C 269.113281 339.261719 269.144531 339.171875 269.167969 339.078125 C 269.328125 338.464844 269.464844 337.847656 269.597656 337.226562 C 269.609375 337.171875 269.625 337.113281 269.636719 337.054688 C 269.773438 336.394531 269.890625 335.730469 269.996094 335.0625 C 269.996094 335.046875 270 335.03125 270.003906 335.015625 C 270.851562 329.542969 270.625 323.90625 269.285156 318.363281 L 358.980469 291.226562 C 364.453125 289.574219 368.949219 285.882812 371.652344 280.835938 C 374.351562 275.789062 374.929688 270 373.273438 264.527344 C 372.050781 260.476562 369.71875 257.054688 366.71875 254.484375 C 368.402344 252.867188 369.851562 250.984375 370.988281 248.863281 C 373.828125 243.5625 374.4375 237.492188 372.703125 231.769531 L 343.410156 134.949219 C 341.679688 129.222656 337.804688 124.507812 332.507812 121.671875 C 327.207031 118.835938 321.140625 118.222656 315.414062 119.957031 L 299.414062 124.800781 C 300.046875 121.386719 299.90625 117.78125 298.832031 114.234375 L 273.429688 30.273438 C 269.84375 18.425781 257.289062 11.707031 245.433594 15.289062 L 226.167969 21.117188 L 222.808594 22.132812 L 161.472656 40.6875 C 157.90625 41.765625 154.808594 43.664062 152.308594 46.109375 L 152.074219 45.324219 C 147.375 29.796875 136.894531 17.019531 122.558594 9.34375 C 108.21875 1.667969 91.777344 0.0273438 76.25 4.722656 L 61.429688 9.207031 C 59.484375 9.265625 57.53125 9.574219 55.617188 10.152344 L 18.328125 21.433594 C 6.617188 24.980469 -0.0273438 37.394531 3.515625 49.105469 C 5.226562 54.773438 9.054688 59.4375 14.285156 62.234375 C 17.558594 63.988281 21.136719 64.878906 24.742188 64.878906 C 26.898438 64.878906 29.066406 64.558594 31.1875 63.917969 L 68.472656 52.636719 C 70.398438 52.054688 72.179688 51.230469 73.808594 50.210938 L 88.65625 45.71875 C 93.246094 44.332031 98.109375 44.816406 102.351562 47.089844 C 106.589844 49.359375 109.691406 53.136719 111.078125 57.726562 L 137.683594 145.65625 L 80.230469 145.65625 C 76.847656 145.65625 74.105469 148.398438 74.105469 151.78125 C 74.105469 155.164062 76.847656 157.90625 80.230469 157.90625 L 139.472656 157.90625 C 140.109375 157.90625 140.726562 157.804688 141.304688 157.625 L 152.734375 195.402344 L 27.847656 195.402344 C 24.464844 195.402344 21.722656 198.144531 21.722656 201.527344 C 21.722656 204.910156 24.464844 207.652344 27.847656 207.652344 L 154.558594 207.652344 C 155.183594 207.652344 155.789062 207.558594 156.359375 207.382812 L 178.980469 282.144531 C 181.578125 290.738281 185.957031 298.492188 191.773438 305.003906 C 191.515625 305.402344 191.25 305.800781 191 306.210938 C 185.066406 315.996094 183.292969 327.507812 186.015625 338.625 C 186.230469 339.515625 186.484375 340.382812 186.753906 341.246094 C 186.808594 341.417969 186.863281 341.59375 186.917969 341.765625 C 187.1875 342.597656 187.480469 343.414062 187.800781 344.21875 C 187.855469 344.359375 187.917969 344.5 187.972656 344.640625 C 188.28125 345.394531 188.609375 346.140625 188.957031 346.871094 C 189 346.960938 189.039062 347.054688 189.085938 347.148438 C 189.460938 347.925781 189.867188 348.6875 190.289062 349.4375 C 190.375 349.589844 190.464844 349.742188 190.550781 349.898438 C 190.984375 350.640625 191.429688 351.375 191.902344 352.089844 C 191.949219 352.152344 191.996094 352.21875 192.039062 352.285156 C 192.496094 352.960938 192.96875 353.621094 193.457031 354.265625 C 193.542969 354.378906 193.625 354.496094 193.714844 354.605469 C 194.230469 355.273438 194.765625 355.925781 195.320312 356.558594 C 195.421875 356.675781 195.527344 356.792969 195.632812 356.910156 C 196.207031 357.550781 196.792969 358.183594 197.402344 358.789062 L 122.8125 358.789062 C 119.480469 358.789062 116.78125 361.488281 116.78125 364.820312 C 116.78125 368.152344 119.480469 370.851562 122.8125 370.851562 L 221.578125 370.851562 C 222.046875 370.917969 222.519531 370.980469 222.996094 371.03125 C 223.0625 371.039062 223.132812 371.046875 223.203125 371.054688 C 223.625 371.097656 224.042969 371.136719 224.464844 371.167969 C 224.660156 371.183594 224.859375 371.195312 225.054688 371.207031 C 225.371094 371.226562 225.691406 371.25 226.011719 371.261719 C 226.542969 371.28125 227.078125 371.292969 227.617188 371.296875 C 227.625 371.296875 227.632812 371.296875 227.640625 371.296875 C 227.640625 371.296875 227.644531 371.296875 227.644531 371.296875 C 228.328125 371.296875 229.011719 371.269531 229.699219 371.234375 C 229.988281 371.21875 230.273438 371.207031 230.5625 371.183594 C 230.867188 371.164062 231.167969 371.132812 231.472656 371.101562 C 232.195312 371.039062 232.917969 370.953125 233.644531 370.851562 L 368.375 370.851562 C 371.707031 370.851562 374.40625 368.152344 374.40625 364.820312 C 374.40625 361.488281 371.703125 358.789062 368.371094 358.789062 Z M 203.605469 177.246094 L 232.898438 274.066406 C 233.859375 277.242188 235.5 280.09375 237.65625 282.5 C 234.574219 282.582031 231.503906 281.878906 228.703125 280.378906 C 224.464844 278.109375 221.363281 274.332031 219.972656 269.742188 L 189.25 168.191406 C 190.605469 168.445312 191.988281 168.59375 193.390625 168.59375 C 195.539062 168.59375 197.722656 168.285156 199.886719 167.628906 L 203.019531 166.683594 C 202.367188 170.164062 202.550781 173.769531 203.605469 177.246094 Z M 221.542969 338.484375 C 215.996094 335.117188 214.226562 327.894531 217.59375 322.347656 C 220.957031 316.796875 228.183594 315.03125 233.730469 318.394531 C 239.277344 321.761719 241.046875 328.984375 237.679688 334.535156 C 234.316406 340.082031 227.089844 341.847656 221.542969 338.484375 Z M 360.851562 275.050781 C 359.695312 277.214844 357.773438 278.792969 355.433594 279.5 L 264.703125 306.953125 C 263.378906 304.671875 261.859375 302.539062 260.167969 300.574219 C 260.148438 300.550781 260.128906 300.527344 260.109375 300.503906 C 257.863281 297.902344 255.320312 295.59375 252.546875 293.613281 C 252.507812 293.585938 252.46875 293.558594 252.429688 293.53125 C 251.75 293.046875 251.054688 292.582031 250.347656 292.136719 L 258.886719 289.550781 C 259.558594 289.414062 260.230469 289.253906 260.894531 289.054688 L 351.414062 261.667969 C 355.84375 260.988281 360.21875 263.660156 361.554688 268.070312 C 362.261719 270.410156 362.011719 272.890625 360.851562 275.050781 Z M 318.960938 131.679688 C 319.925781 131.386719 320.914062 131.246094 321.894531 131.246094 C 323.554688 131.246094 325.207031 131.65625 326.726562 132.46875 C 329.140625 133.761719 330.902344 135.902344 331.6875 138.496094 L 360.980469 235.316406 C 361.765625 237.90625 361.484375 240.664062 360.191406 243.078125 C 358.898438 245.492188 356.757812 247.253906 354.164062 248.042969 L 348.636719 249.714844 C 347.949219 249.851562 347.261719 250.019531 346.578125 250.226562 L 256.003906 277.632812 C 253.824219 277.980469 251.585938 277.621094 249.582031 276.546875 C 247.167969 275.253906 245.40625 273.113281 244.621094 270.519531 L 215.328125 173.699219 C 214.542969 171.105469 214.820312 168.347656 216.117188 165.933594 C 217.40625 163.519531 219.550781 161.757812 222.140625 160.972656 L 245.957031 153.765625 L 259.191406 197.5 L 308.375 182.617188 L 295.144531 138.886719 Z M 267.367188 182.230469 L 257.679688 150.222656 L 265.320312 147.910156 L 283.421875 142.433594 L 293.105469 174.445312 Z M 217.988281 36.386719 L 226.34375 64.003906 L 204.367188 70.652344 L 196.011719 43.035156 Z M 165.019531 52.410156 L 184.289062 46.582031 L 196.191406 85.925781 L 241.617188 72.179688 L 229.710938 32.839844 L 248.980469 27.007812 C 249.960938 26.710938 250.953125 26.570312 251.929688 26.570312 C 256.3125 26.570312 260.375 29.417969 261.707031 33.824219 L 287.109375 117.78125 C 288.738281 123.167969 285.679688 128.878906 280.296875 130.507812 L 196.335938 155.910156 C 190.957031 157.546875 185.242188 154.484375 183.609375 149.097656 L 158.207031 65.136719 C 156.578125 59.75 159.636719 54.039062 165.019531 52.410156 Z M 190.699219 278.597656 L 122.800781 54.179688 C 118.855469 41.132812 106.828125 32.699219 93.847656 32.699219 C 90.957031 32.699219 88.015625 33.117188 85.109375 34 L 84.039062 34.324219 C 84.449219 31.277344 84.234375 28.097656 83.285156 24.972656 C 82.355469 21.890625 80.78125 19.121094 78.71875 16.773438 L 79.796875 16.445312 C 105.421875 8.6875 132.59375 23.238281 140.351562 48.871094 L 208.25 273.289062 C 209.867188 278.632812 212.859375 283.320312 216.914062 286.964844 L 216.910156 286.964844 C 216.144531 287.164062 215.382812 287.382812 214.632812 287.621094 C 214.578125 287.636719 214.523438 287.65625 214.464844 287.675781 C 213.757812 287.902344 213.054688 288.148438 212.359375 288.414062 C 212.308594 288.429688 212.253906 288.453125 212.199219 288.472656 C 211.472656 288.75 210.757812 289.046875 210.050781 289.363281 C 210.046875 289.363281 210.042969 289.367188 210.039062 289.367188 C 206.378906 291.007812 202.992188 293.144531 199.953125 295.71875 C 195.789062 290.761719 192.628906 284.972656 190.699219 278.597656 Z M 190.699219 278.597656 " fill-opacity="1" fill-rule="nonzero"/></g></svg>